@startuml
'https://plantuml.com/class-diagram

'Persona
class Person
class Member
class BoardMember

'Evento
class Event
class Conference
class BoardMetting

'Asociacion
class AAUOC
class Location

Event <|-- Conference
Event <|-- BoardMetting

Person <|-- Member
Member <|-- BoardMember

Person -- Conference
BoardMember -- BoardMetting
Event -- Member
Event -- Location

AAUOC o-- Location
AAUOC o-- Event
AAUOC o-- Person
@enduml
